<svg xmlns="http://www.w3.org/2000/svg"
 xmlns:xlink="http://www.w3.org/1999/xlink"
 width="21px" height="17px"  viewBox="0 0 21 17">
<path fill-rule="evenodd"  fill="#436372"
 d="M4.999756,16.0 C4.94458,16.0 4.889038,15.989502 4.8359375,15.968506 C4.6757812,15.905029 4.571289,15.755127 4.571289,15.588867 C4.571289,15.588867 4.571289,13.518066 4.571289,13.518066 C4.571289,13.518066 3.2856445,13.518066 3.2856445,13.518066 C2.5767822,13.518066 2.0,12.965088 2.0,12.2854 C2.0,12.2854 2.0,2.4238281 2.0,2.4238281 C2.0,1.7441406 2.5767822,1.1911621 3.2856445,1.1911621 C3.2856445,1.1911621 18.71399,1.1911621 18.71399,1.1911621 C19.422974,1.1911621 19.999756,1.7441406 19.999756,2.4238281 C19.999756,2.4238281 19.999756,12.2854 19.999756,12.2854 C19.999756,12.965088 19.422974,13.518066 18.71399,13.518066 C18.71399,13.518066 7.765991,13.518066 7.765991,13.518066 C7.765991,13.518066 5.3029785,15.879395 5.3029785,15.879395 C5.2209473,15.958252 5.111328,16.0 4.999756,16.0 ZM3.2856445,2.0129395 C3.0493164,2.0129395 2.8570557,2.1972656 2.8570557,2.4238281 C2.8570557,2.4238281 2.8570557,12.2854 2.8570557,12.2854 C2.8570557,12.511963 3.0493164,12.696289 3.2856445,12.696289 C3.2856445,12.696289 4.999878,12.696289 4.999878,12.696289 C5.2366943,12.696289 5.428467,12.880371 5.428467,13.107178 C5.428467,13.107178 5.428467,14.596924 5.428467,14.596924 C5.428467,14.596924 7.2852783,12.816895 7.2852783,12.816895 C7.3657227,12.739502 7.4747314,12.696289 7.588379,12.696289 C7.588379,12.696289 18.71399,12.696289 18.71399,12.696289 C18.950317,12.696289 19.142578,12.511963 19.142578,12.2854 C19.142578,12.2854 19.142578,2.4238281 19.142578,2.4238281 C19.142578,2.1972656 18.950317,2.0129395 18.71399,2.0129395 C18.71399,2.0129395 3.2856445,2.0129395 3.2856445,2.0129395 ZM8.057251,7.3547363 C8.057251,7.6950684 7.7695312,7.9709473 7.414551,7.9709473 C7.059326,7.9709473 6.7716064,7.6950684 6.7716064,7.3547363 C6.7716064,7.0144043 7.059326,6.7382812 7.414551,6.7382812 C7.7695312,6.7382812 8.057251,7.0144043 8.057251,7.3547363 ZM11.6427,7.3547363 C11.6427,7.6950684 11.35498,7.9709473 10.999878,7.9709473 C10.644775,7.9709473 10.356934,7.6950684 10.356934,7.3547363 C10.356934,7.0144043 10.644775,6.7382812 10.999878,6.7382812 C11.35498,6.7382812 11.6427,7.0144043 11.6427,7.3547363 ZM14.985596,7.3547363 C14.985596,7.6950684 14.697754,7.9709473 14.342773,7.9709473 C13.987671,7.9709473 13.699829,7.6950684 13.699829,7.3547363 C13.699829,7.0144043 13.987671,6.7382812 14.342773,6.7382812 C14.697754,6.7382812 14.985596,7.0144043 14.985596,7.3547363 Z"/>
</svg>